<svg height="512pt" viewBox="-57 0 512 512.001" width="512pt" xmlns="http://www.w3.org/2000/svg" xmlns:xlink="http://www.w3.org/1999/xlink"><linearGradient id="a" gradientUnits="userSpaceOnUse" x1=".0005" x2="397.0005" y1="256" y2="256"><stop offset="0" stop-color="#80d8ff"/><stop offset="1" stop-color="#ea80fc"/></linearGradient><path d="m198.5 0c-109.453125 0-198.5 89.03125-198.5 198.46875 0 60.523438 27.121094 116.980469 74.410156 154.898438 1.058594.847656 2.203125 1.566406 3.394532 2.175781l17.277343 71.230469c2.175781 8.96875 10.207031 15.285156 19.4375 15.285156h14.4375l7.382813 52.714844c1.382812 9.878906 9.832031 17.226562 19.808594 17.226562h84.707031c9.972656 0 18.425781-7.347656 19.808593-17.226562l7.378907-52.714844h14.441406c9.226563 0 17.257813-6.316406 19.433594-15.285156l17.28125-71.230469c1.191406-.609375 2.332031-1.328125 3.390625-2.175781 47.289062-37.917969 74.410156-94.375 74.410156-154.898438 0-109.4375-89.046875-198.46875-198.5-198.46875zm24.960938 472h-49.921876l-4.191406-29.945312h58.304688zm43.292968-69.945312c-17.214844 0-115.558594 0-136.507812 0l-10.746094-44.292969h158zm36.066406-84.292969h-208.640624c-34.519532-30.160157-54.179688-73.253907-54.179688-119.292969 0-87.378906 71.101562-158.46875 158.5-158.46875s158.5 71.089844 158.5 158.46875c0 46.035156-19.660156 89.132812-54.179688 119.292969zm-7.921874-193.867188-85.765626-53.832031c-6.5-4.082031-14.765624-4.082031-21.265624 0l-85.765626 53.832031c-5.992187 3.761719-9.367187 10.289063-9.367187 16.9375v82.332031c0 6.882813 3.539063 13.28125 9.367187 16.941407l85.765626 53.832031c6.617187 4.152344 14.902343 3.992188 21.265624 0l85.765626-53.832031c5.828124-3.660157 9.363281-10.058594 9.363281-16.941407v-82.332031c.003906-6.714843-3.449219-13.222656-9.363281-16.9375zm-116.398438 116.9375-45.761719-28.726562v-35.105469l45.761719 28.726562zm20-69.777343-48.144531-30.222657 48.144531-30.21875 48.144531 30.222657zm65.765625 41.050781-45.765625 28.726562v-35.105469l45.765625-28.722656zm0 0" fill="url(#a)"/></svg>